# xmcd CD database file
#
# Track frame offsets:
#	150
#	17872
#	42772
#	65119
#	87951
#	116361
#	140533
#	164527
#	186038
#	212204
#	239013
#	268629
#
# Disc length: 3813 seconds
#
# Revision: 0
# Processed by: cddbd v1.5.2PL0 Copyright (c) Steve Scherf et al.
# Submitted via: CDex 1.51
#
DISCID=b00ee30c
DTITLE=Axel Isensee - Music and Friends
DYEAR=1997
DGENRE=New Age
TTITLE0=Melodia (No. 1)
TTITLE1=Musica
TTITLE2=Nature
TTITLE3=Anima
TTITLE4=Harmony
TTITLE5=L'Amour
TTITLE6=Creation
TTITLE7=Freedom
TTITLE8=Faith
TTITLE9=Gaudium
TTITLE10=Vision
TTITLE11=Meoldia (No. 2)
EXTD=YEAR: 1997
EXTT0=
EXTT1=
EXTT2=
EXTT3=
EXTT4=
EXTT5=
EXTT6=
EXTT7=
EXTT8=
EXTT9=
EXTT10=
EXTT11=
PLAYORDER=
